#!OML:ASF X:\für Bonn\!DataBase\2005_08_12_Daniel\c3d\Daniel.ASF
:FULLY-SPECIFIED
:DEGREES
216
root 1.92337 17.3149 15.3567 353.589 -242.757 717.874
lowerback 5.45151 -5.42184 0.315193
upperback 0.996213 -7.2297 -2.74844
thorax -2.4068 -3.5995 -2.446
lowerneck 10.2421 11.004 10.3221
upperneck 12.481 17.5808 -11.1686
head 3.9908 9.22869 -4.73439
rclavicle -1.11524e-013 9.54166e-015
rhumerus -51.0369 1.47628 -60.3212
rradius 119.263
rwrist -49.8198
rhand 2.16503 15.7285
rfingers 7.12502
rthumb 27.6624 -12.2574
lclavicle -1.11524e-013 9.54166e-015
lhumerus -44.0996 45.3665 59.4402
lradius 18.6707
lwrist -40.5987
lhand -9.54962 -5.96423
lfingers 7.12502
lthumb 16.4173 23.361
rfemur 5.71548 -9.09724 7.12334
rtibia 33.3987
rfoot -27.5166 -29.1161
rtoes -12.138
lfemur -10.9091 7.57374 -24.3959
ltibia 41.4839
lfoot -29.218 11.883
ltoes 3.10285
217
root 1.92982 17.3247 15.2635 353.608 -241.853 717.885
lowerback 5.4956 -5.38393 0.317337
upperback 1.01056 -7.17811 -2.74785
thorax -2.41418 -3.57317 -2.4474
lowerneck 10.1654 11.1024 10.3403
upperneck 12.5595 17.7536 -11.2693
head 4.05664 9.31376 -4.74873
rclavicle -2.02947e-014 1.90833e-014
rhumerus -51.7733 1.93353 -62.5018
rradius 117.865
rwrist -50.7637
rhand 2.8328 14.807
rfingers 7.12502
rthumb 28.3008 -13.0748
lclavicle -2.02947e-014 1.90833e-014
lhumerus -44.296 46.0149 58.7743
lradius 18.3459
lwrist -41.9608
lhand -9.50108 -6.00885
lfingers 7.12502
lthumb 16.4641 23.3125
rfemur 5.12036 -9.35162 6.77945
rtibia 34.7212
rfoot -26.2953 -29.9856
rtoes -12.1078
lfemur -10.5038 6.97602 -24.7791
ltibia 41.0163
lfoot -29.1611 11.6534
ltoes 3.44916
218
root 1.93354 17.3342 15.1712 353.648 -240.933 717.922
lowerback 5.58678 -5.36044 0.325808
upperback 1.01462 -7.14613 -2.7428
thorax -2.45953 -3.55676 -2.44084
lowerneck 10.0471 11.1702 10.3851
upperneck 12.6583 17.8924 -11.4137
head 4.13723 9.38062 -4.77824
rclavicle -5.00689e-014 -3.73715e-014
rhumerus -52.395 2.31032 -64.6234
rradius 116.312
rwrist -51.6562
rhand 3.26122 13.896
rfingers 7.12502
rthumb 28.7101 -13.9172
lclavicle -5.00689e-014 -3.73715e-014
lhumerus -44.4654 46.596 58.1605
lradius 18.0573
lwrist -43.213
lhand -9.46227 -6.00018
lfingers 7.12502
lthumb 16.5014 23.3181
rfemur 4.42994 -9.5542 6.47294
rtibia 36.1436
rfoot -24.8553 -30.6044
rtoes -11.9171
lfemur -10.1037 6.36995 -25.1488
ltibia 40.5673
lfoot -29.0993 11.426
ltoes 3.76765
219
root 1.93524 17.339 15.0802 353.683 -240.001 717.961
lowerback 5.70523 -5.35028 0.319325
upperback 1.02238 -7.13254 -2.72363
thorax -2.51349 -3.54924 -2.40774
lowerneck 9.86396 11.2246 10.3912
upperneck 12.789 18.0092 -11.5607
head 4.23225 9.43217 -4.79878
rclavicle 1.84746e-014 1.90833e-014
rhumerus -52.8508 2.66338 -66.6728
rradius 114.601
rwrist -52.5214
rhand 3.40365 13.0885
rfingers 7.12502
rthumb 28.8462 -14.7016
lclavicle 1.84746e-014 1.90833e-014
lhumerus -44.636 47.1959 57.5445
lradius 17.7861
lwrist -44.4248
lhand -9.47505 -5.96033
lfingers 7.12502
lthumb 16.4891 23.359
rfemur 3.67295 -9.85007 6.14141
rtibia 37.6609
rfoot -23.1814 -30.9231
rtoes -11.7547
lfemur -9.7338 5.73542 -25.5222
ltibia 40.1794
lfoot -29.064 11.2307
ltoes 3.9933
220
root 1.93386 17.3374 14.9915 353.73 -239.033 717.996
lowerback 5.84301 -5.34779 0.33025
upperback 1.01344 -7.12911 -2.71075
thorax -2.59888 -3.54717 -2.38683
lowerneck 9.64416 11.2754 10.3132
upperneck 12.9579 18.1006 -11.5866
head 4.32435 9.46818 -4.76894
rclavicle 1.35608e-013 5.56597e-015
rhumerus -53.2342 2.96897 -68.6353
rradius 112.776
rwrist -53.4908
rhand 3.37948 12.4599
rfingers 7.12502
rthumb 28.8231 -15.3341
lclavicle 1.35608e-013 5.56597e-015
lhumerus -44.7858 47.7101 56.9988
lradius 17.5617
lwrist -45.512
lhand -9.60235 -5.91856
lfingers 7.12502
lthumb 16.3665 23.4109
rfemur 2.84299 -10.2893 5.77865
rtibia 39.2519
rfoot -21.2702 -30.9657
rtoes -11.3264
lfemur -9.41775 5.07297 -25.9065
ltibia 39.8473
lfoot -29.018 11.0396
ltoes 4.19391
221
root 1.93239 17.3324 14.9046 353.795 -238.02 718.052
lowerback 5.97522 -5.35809 0.343041
upperback 1.01589 -7.14199 -2.69696
thorax -2.6703 -3.55306 -2.36574
lowerneck 9.41146 11.298 10.2821
upperneck 13.107 18.1608 -11.6723
head 4.418 9.48864 -4.76518
rclavicle -2.83455e-014 -7.95139e-016
rhumerus -53.4984 3.21592 -70.5014
rradius 110.812
rwrist -54.4889
rhand 3.24401 12.0489
rfingers 7.12502
rthumb 28.6937 -15.7671
lclavicle -2.83455e-014 -7.95139e-016
lhumerus -44.9596 48.3204 56.371
lradius 17.3228
lwrist -46.7114
lhand -9.72958 -5.89422
lfingers 7.12502
lthumb 16.244 23.4453
rfemur 1.98862 -10.7825 5.44813
rtibia 40.8808
rfoot -19.1969 -30.6477
rtoes -10.5209
lfemur -9.11043 4.36797 -26.2769
ltibia 39.5339
lfoot -28.9728 10.8428
ltoes 4.3777
222
root 1.93286 17.333 14.8173 353.881 -236.944 718.131
lowerback 6.11252 -5.38305 0.372883
upperback 1.01571 -7.17347 -2.68077
thorax -2.74993 -3.56846 -2.34905
lowerneck 9.1835 11.3106 10.2018
upperneck 13.2577 18.1979 -11.7066
head 4.50004 9.49689 -4.74095
rclavicle 5.68586e-014 7.15625e-015
rhumerus -53.7208 3.41817 -72.2258
rradius 108.758
rwrist -55.5662
rhand 3.17864 11.9007
rfingers 7.12502
rthumb 28.6312 -15.9259
lclavicle 5.68586e-014 7.15625e-015
lhumerus -45.1182 48.9162 55.7599
lradius 17.0804
lwrist -47.8496
lhand -9.87709 -5.84731
lfingers 7.12502
lthumb 16.102 23.5037
rfemur 1.12677 -11.2054 5.21363
rtibia 42.5204
rfoot -17.138 -29.8871
rtoes -9.54877
lfemur -8.76798 3.60782 -26.6357
ltibia 39.1966
lfoot -28.9219 10.6477
ltoes 4.55462
